<svg width="46" height="72" viewBox="0 0 46 72" fill="none" xmlns="http://www.w3.org/2000/svg">
<path d="M44.1375 48.1938C44.0033 53.7459 41.7182 59.0251 37.7699 62.9042C33.8216 66.7832 28.5233 68.9546 23.0062 68.9546C17.4892 68.9546 12.1909 66.7832 8.24261 62.9042C4.29435 59.0251 2.00915 53.7459 1.875 48.1938C1.875 36.4411 11.3375 17.604 23 17.604C34.6625 17.604 44.1375 36.4411 44.1375 48.1938Z" fill="#FAFBFC" stroke="#27744D" stroke-width="3" stroke-miterlimit="10"/>
<path d="M34.6 16.6099L36.8625 5.61214C36.9977 5.12933 37.0053 4.61935 36.8846 4.13266C36.7639 3.64597 36.5192 3.19941 36.1745 2.83717C35.8298 2.47493 35.3971 2.20955 34.9193 2.06727C34.4414 1.92498 33.935 1.91072 33.45 2.02591L26.05 4.41672C24.1353 5.03324 22.0772 5.03324 20.1625 4.41672L12.55 1.98816C12.0653 1.87168 11.5588 1.88517 11.0809 2.02725C10.603 2.16934 10.1705 2.43505 9.82646 2.79792C9.48244 3.16079 9.23895 3.60813 9.12025 4.0953C9.00155 4.58247 9.01181 5.09246 9.15 5.57439L11.4125 16.5973" fill="#FAFBFC"/>
<path d="M34.6 16.6099L36.8625 5.61214C36.9977 5.12933 37.0053 4.61935 36.8846 4.13266C36.7639 3.64597 36.5192 3.19941 36.1745 2.83717C35.8298 2.47493 35.3971 2.20955 34.9193 2.06727C34.4414 1.92498 33.935 1.91072 33.45 2.02591L26.05 4.41672C24.1353 5.03324 22.0772 5.03324 20.1625 4.41672L12.55 1.98816C12.0653 1.87168 11.5588 1.88517 11.0809 2.02725C10.603 2.16934 10.1705 2.43505 9.82646 2.79792C9.48244 3.16079 9.23895 3.60813 9.12025 4.0953C9.00155 4.58247 9.01181 5.09246 9.15 5.57439L11.4125 16.5973" stroke="#27744D" stroke-width="3" stroke-miterlimit="10"/>
<path d="M33.4125 23.9333H12.6C11.6363 23.93 10.713 23.5432 10.0316 22.8572C9.35014 22.1712 8.96582 21.2417 8.96252 20.2716C8.96582 19.3015 9.35014 18.372 10.0316 17.686C10.713 17 11.6363 16.6132 12.6 16.6099H33.4125C34.3762 16.6132 35.2995 17 35.981 17.686C36.6624 18.372 37.0467 19.3015 37.05 20.2716C37.0467 21.2417 36.6624 22.1712 35.981 22.8572C35.2995 23.5432 34.3762 23.93 33.4125 23.9333Z" fill="#FAFBFC" stroke="#27744D" stroke-width="3" stroke-miterlimit="10"/>
<path d="M26.0933 51.7064C26.0933 51.0475 25.8605 50.4925 25.395 50.0413C24.9367 49.5902 24.1597 49.182 23.064 48.8167C21.5386 48.3512 20.425 47.7461 19.7231 47.0013C19.0285 46.2493 18.6812 45.2969 18.6812 44.1439C18.6812 42.9694 19.0213 42.0062 19.7017 41.2542C20.3892 40.5023 21.3309 40.0547 22.5269 39.9115V37.5589H24.1274V39.9222C25.3306 40.0869 26.2651 40.5918 26.9312 41.4368C27.6043 42.2819 27.9409 43.4385 27.9409 44.9066H25.9644C25.9644 43.8968 25.7244 43.0947 25.2446 42.5003C24.7648 41.9059 24.1167 41.6087 23.3003 41.6087C22.4481 41.6087 21.7964 41.8307 21.3452 42.2747C20.894 42.7116 20.6685 43.3239 20.6685 44.1116C20.6685 44.8421 20.9048 45.4258 21.3774 45.8626C21.8573 46.2923 22.6414 46.6862 23.73 47.0443C24.8257 47.3952 25.6779 47.7855 26.2866 48.2152C26.9025 48.6377 27.3537 49.1318 27.6401 49.6976C27.9338 50.2633 28.0806 50.9258 28.0806 51.6849C28.0806 52.8952 27.7153 53.8691 26.9849 54.6068C26.2616 55.3444 25.2446 55.7812 23.9341 55.9173V57.9691H22.3442V55.9173C21.0122 55.7956 19.9666 55.3229 19.2075 54.4993C18.4556 53.6686 18.0796 52.5443 18.0796 51.1263H20.0669C20.0669 52.1217 20.3283 52.888 20.8511 53.4251C21.3739 53.9622 22.1151 54.2308 23.0747 54.2308C24.0129 54.2308 24.7505 54.0052 25.2876 53.554C25.8247 53.1029 26.0933 52.487 26.0933 51.7064Z" fill="#27744D"/>
<path d="M25.395 50.0413L25.1319 50.3086L25.134 50.3106L25.395 50.0413ZM23.064 48.8167L23.1826 48.4609L23.1734 48.4581L23.064 48.8167ZM19.7231 47.0013L19.4477 47.2558L19.4502 47.2585L19.7231 47.0013ZM19.7017 41.2542L19.4249 41.0012L19.4236 41.0026L19.7017 41.2542ZM22.5269 39.9115L22.5714 40.2838L22.9019 40.2442V39.9115H22.5269ZM22.5269 37.5589V37.1839H22.1519V37.5589H22.5269ZM24.1274 37.5589H24.5024V37.1839H24.1274V37.5589ZM24.1274 39.9222H23.7524V40.2494L24.0766 40.2937L24.1274 39.9222ZM26.9312 41.4368L26.6366 41.669L26.6378 41.6705L26.9312 41.4368ZM27.9409 44.9066V45.2816H28.3159V44.9066H27.9409ZM25.9644 44.9066H25.5894V45.2816H25.9644V44.9066ZM25.2446 42.5003L25.5364 42.2648L25.2446 42.5003ZM21.3452 42.2747L21.6061 42.5442L21.6083 42.542L21.3452 42.2747ZM21.3774 45.8626L21.1229 46.1381L21.1273 46.142L21.3774 45.8626ZM23.73 47.0443L23.6128 47.4005L23.6156 47.4014L23.73 47.0443ZM26.2866 48.2152L26.0703 48.5216L26.0745 48.5244L26.2866 48.2152ZM27.6401 49.6976L27.3056 49.867L27.3073 49.8703L27.6401 49.6976ZM26.9849 54.6068L26.7184 54.3429L26.7171 54.3442L26.9849 54.6068ZM23.9341 55.9173L23.8954 55.5443L23.5591 55.5792V55.9173H23.9341ZM23.9341 57.9691V58.3441H24.3091V57.9691H23.9341ZM22.3442 57.9691H21.9692V58.3441H22.3442V57.9691ZM22.3442 55.9173H22.7192V55.575L22.3784 55.5439L22.3442 55.9173ZM19.2075 54.4993L18.9295 54.751L18.9318 54.7535L19.2075 54.4993ZM18.0796 51.1263V50.7513H17.7046V51.1263H18.0796ZM20.0669 51.1263H20.4419V50.7513H20.0669V51.1263ZM20.8511 53.4251L20.5824 53.6867L20.8511 53.4251ZM26.4683 51.7064C26.4683 50.9479 26.1957 50.2952 25.656 49.7721L25.134 50.3106C25.5253 50.6899 25.7183 51.1471 25.7183 51.7064H26.4683ZM25.6581 49.7741C25.1383 49.2624 24.2959 48.8321 23.1826 48.461L22.9454 49.1725C24.0234 49.5318 24.7351 49.9179 25.132 50.3086L25.6581 49.7741ZM23.1734 48.4581C21.6787 48.0019 20.6349 47.422 19.9961 46.7441L19.4502 47.2585C20.2151 48.0701 21.3985 48.7006 22.9545 49.1754L23.1734 48.4581ZM19.9986 46.7468C19.3761 46.0731 19.0562 45.2154 19.0562 44.1439H18.3062C18.3062 45.3784 18.6808 46.4256 19.4477 47.2558L19.9986 46.7468ZM19.0562 44.1439C19.0562 43.0467 19.3716 42.178 19.9797 41.5058L19.4236 41.0026C18.6711 41.8343 18.3062 42.8921 18.3062 44.1439H19.0562ZM19.9784 41.5073C20.5946 40.8333 21.4476 40.4184 22.5714 40.2838L22.4823 39.5391C21.2142 39.691 20.1837 40.1713 19.4249 41.0012L19.9784 41.5073ZM22.9019 39.9115V37.5589H22.1519V39.9115H22.9019ZM22.5269 37.9339H24.1274V37.1839H22.5269V37.9339ZM23.7524 37.5589V39.9222H24.5024V37.5589H23.7524ZM24.0766 40.2937C25.1969 40.4471 26.0386 40.9102 26.6366 41.669L27.2257 41.2047C26.4917 40.2734 25.4642 39.7267 24.1783 39.5507L24.0766 40.2937ZM26.6378 41.6705C27.2419 42.4288 27.5659 43.4931 27.5659 44.9066H28.3159C28.3159 43.3839 27.9667 42.135 27.2245 41.2032L26.6378 41.6705ZM27.9409 44.5316H25.9644V45.2816H27.9409V44.5316ZM26.3394 44.9066C26.3394 43.8388 26.0852 42.9447 25.5364 42.2648L24.9528 42.7359C25.3637 43.2448 25.5894 43.9548 25.5894 44.9066H26.3394ZM25.5364 42.2648C24.98 41.5754 24.2211 41.2337 23.3003 41.2337V41.9837C24.0123 41.9837 24.5496 42.2364 24.9528 42.7359L25.5364 42.2648ZM23.3003 41.2337C22.3847 41.2337 21.625 41.4732 21.0822 42.0075L21.6083 42.542C21.9678 42.1882 22.5115 41.9837 23.3003 41.9837V41.2337ZM21.0844 42.0053C20.5427 42.5298 20.2935 43.2497 20.2935 44.1116H21.0435C21.0435 43.398 21.2454 42.8933 21.6061 42.5441L21.0844 42.0053ZM20.2935 44.1116C20.2935 44.9311 20.5627 45.6203 21.1229 46.138L21.632 45.5872C21.2468 45.2313 21.0435 44.7531 21.0435 44.1116H20.2935ZM21.1273 46.142C21.6648 46.6234 22.5075 47.0369 23.6128 47.4005L23.8472 46.688C22.7754 46.3355 22.0497 45.9613 21.6276 45.5833L21.1273 46.142ZM23.6156 47.4014C24.6925 47.7463 25.5049 48.1224 26.0704 48.5215L26.5029 47.9088C25.8509 47.4486 24.9589 47.0441 23.8444 46.6871L23.6156 47.4014ZM26.0745 48.5244C26.6477 48.9177 27.0522 49.3666 27.3056 49.867L27.9747 49.5282C27.6551 48.8971 27.1573 48.3577 26.4988 47.9059L26.0745 48.5244ZM27.3073 49.8703C27.5684 50.3734 27.7056 50.9745 27.7056 51.6849H28.4556C28.4556 50.8771 28.2991 50.1533 27.973 49.5248L27.3073 49.8703ZM27.7056 51.6849C27.7056 52.814 27.3678 53.6871 26.7184 54.3429L27.2513 54.8706C28.0628 54.0512 28.4556 52.9763 28.4556 51.6849H27.7056ZM26.7171 54.3442C26.0702 55.0039 25.1435 55.4147 23.8954 55.5443L23.9728 56.2903C25.3458 56.1478 26.4529 55.6848 27.2526 54.8693L26.7171 54.3442ZM23.5591 55.9173V57.9691H24.3091V55.9173H23.5591ZM23.9341 57.5941H22.3442V58.3441H23.9341V57.5941ZM22.7192 57.9691V55.9173H21.9692V57.9691H22.7192ZM22.3784 55.5439C21.1199 55.4288 20.1676 54.9876 19.4833 54.2452L18.9318 54.7535C19.7657 55.6582 20.9045 56.1623 22.3101 56.2908L22.3784 55.5439ZM19.4855 54.2477C18.8113 53.5028 18.4546 52.4768 18.4546 51.1263H17.7046C17.7046 52.6117 18.0999 53.8344 18.9295 54.751L19.4855 54.2477ZM18.0796 51.5013H20.0669V50.7513H18.0796V51.5013ZM19.6919 51.1263C19.6919 52.1864 19.9714 53.059 20.5824 53.6867L21.1198 53.1636C20.6852 52.717 20.4419 52.0571 20.4419 51.1263H19.6919ZM20.5824 53.6867C21.1941 54.3152 22.0437 54.6058 23.0747 54.6058V53.8558C22.1864 53.8558 21.5536 53.6092 21.1198 53.1636L20.5824 53.6867ZM23.0747 54.6058C24.0711 54.6058 24.9043 54.3658 25.5288 53.8412L25.0464 53.2669C24.5967 53.6446 23.9546 53.8558 23.0747 53.8558V54.6058ZM25.5288 53.8412C26.161 53.3102 26.4683 52.5837 26.4683 51.7064H25.7183C25.7183 52.3903 25.4885 52.8956 25.0464 53.2669L25.5288 53.8412Z" fill="#27744D"/>
</svg>
