<svg width="60" height="67" viewBox="0 0 60 67" fill="none" xmlns="http://www.w3.org/2000/svg">
<g clip-path="url(#clip0)">
<path d="M4.72 45.3C3.86682 45.2973 3.04934 44.9573 2.44604 44.354C1.84275 43.7507 1.50264 42.9332 1.5 42.08V29.54C1.50264 28.6868 1.84275 27.8693 2.44604 27.266C3.04934 26.6627 3.86682 26.3226 4.72 26.32C5.57319 26.3226 6.39069 26.6627 6.99399 27.266C7.59728 27.8693 7.93737 28.6868 7.94 29.54V42.08C7.93737 42.9332 7.59728 43.7507 6.99399 44.354C6.39069 44.9573 5.57319 45.2973 4.72 45.3Z" fill="#FAFBFC" stroke="#27744D" stroke-width="3" stroke-linecap="round" stroke-linejoin="round"/>
<path d="M54.37 45.3C53.9471 45.3 53.5284 45.2167 53.1378 45.0549C52.7471 44.8931 52.3921 44.6559 52.0931 44.3569C51.7941 44.0579 51.557 43.7029 51.3951 43.3122C51.2333 42.9216 51.15 42.5028 51.15 42.08V29.54C51.15 29.1171 51.2333 28.6984 51.3951 28.3077C51.557 27.9171 51.7941 27.5621 52.0931 27.2631C52.3921 26.9641 52.7471 26.7269 53.1378 26.5651C53.5284 26.4033 53.9471 26.32 54.37 26.32C55.2223 26.3227 56.0387 26.6631 56.6404 27.2666C57.2421 27.8702 57.58 28.6877 57.58 29.54V42.08C57.58 42.9323 57.2421 43.7498 56.6404 44.3534C56.0387 44.9569 55.2223 45.2973 54.37 45.3Z" fill="#FAFBFC" stroke="#27744D" stroke-width="3" stroke-linecap="round" stroke-linejoin="round"/>
<path d="M4.71997 26.32C4.85039 19.8223 7.52319 13.6347 12.1646 9.08551C16.806 4.53634 23.046 1.98825 29.545 1.98825C36.044 1.98825 42.284 4.53634 46.9254 9.08551C51.5668 13.6347 54.2395 19.8223 54.37 26.32" stroke="#27744D" stroke-width="3" stroke-linecap="round" stroke-linejoin="round"/>
<path d="M52.33 45.3L49.26 53.51C47.9768 56.9231 45.4465 59.7222 42.18 61.3425C38.9134 62.9628 35.1538 63.2835 31.66 62.24V62.24" stroke="#27744D" stroke-width="3" stroke-linecap="round" stroke-linejoin="round"/>
<path d="M33.31 60.88C33.31 61.6257 33.0889 62.3545 32.6746 62.9745C32.2604 63.5945 31.6716 64.0777 30.9827 64.3631C30.2938 64.6484 29.5358 64.7231 28.8045 64.5776C28.0732 64.4321 27.4014 64.073 26.8742 63.5458C26.3469 63.0185 25.9879 62.3468 25.8424 61.6155C25.6969 60.8842 25.7716 60.1261 26.0569 59.4373C26.3423 58.7484 26.8255 58.1596 27.4455 57.7454C28.0654 57.3311 28.7943 57.11 29.54 57.11C30.0354 57.1087 30.5263 57.2053 30.9842 57.3943C31.4422 57.5833 31.8584 57.8609 32.2087 58.2113C32.559 58.5616 32.8367 58.9778 33.0257 59.4357C33.2147 59.8937 33.3113 60.3846 33.31 60.88Z" fill="#FAFBFC" stroke="#27744D" stroke-width="3" stroke-linecap="round" stroke-linejoin="round"/>
<path d="M32.51 46.31H23.5" stroke="#27744D" stroke-width="3" stroke-linecap="round" stroke-linejoin="round"/>
</g>
<defs>
<clipPath id="clip0">
<rect width="59.08" height="66.15" fill="white"/>
</clipPath>
</defs>
</svg>
