<svg width="60" height="60" viewBox="0 0 60 60" fill="none" xmlns="http://www.w3.org/2000/svg">
<g clip-path="url(#clip0)">
<path d="M58.0015 34.572C60.5094 19.1222 50.0179 4.5647 34.5681 2.05685C19.1183 -0.451003 4.5608 10.0405 2.05295 25.4903C-0.4549 40.94 10.0366 55.4976 25.4864 58.0054C40.9361 60.5133 55.4937 50.0218 58.0015 34.572Z" fill="#FAFBFC" stroke="#27744D" stroke-width="3" stroke-miterlimit="10"/>
<path d="M37.9562 49.2179C48.5651 44.8235 53.603 32.6609 49.2087 22.052C44.8143 11.443 32.6517 6.40516 22.0428 10.7995C11.4339 15.1939 6.39595 27.3564 10.7903 37.9654C15.1847 48.5743 27.3473 53.6122 37.9562 49.2179Z" fill="#FAFBFC" stroke="#27744D" stroke-width="3" stroke-miterlimit="10"/>
<path d="M30.0055 1.66513V9.20259" stroke="#27744D" stroke-width="3" stroke-linecap="round" stroke-linejoin="round"/>
<path d="M54.3163 15.4413L47.9445 19.482" stroke="#27744D" stroke-width="3" stroke-linecap="round" stroke-linejoin="round"/>
<path d="M11.8668 19.8261L5.55042 15.6744" stroke="#27744D" stroke-width="3" stroke-linecap="round" stroke-linejoin="round"/>
<path d="M9.20264 10.7567L14.5199 16.074" stroke="#27744D" stroke-width="3" stroke-linecap="round" stroke-linejoin="round"/>
<path d="M23.8418 26.3415C23.8418 25.5312 24.0985 24.8633 24.6118 24.3376C25.1313 23.8118 25.7962 23.549 26.6064 23.549C27.429 23.549 28.0939 23.8149 28.6011 24.3468C29.1144 24.8725 29.3711 25.556 29.3711 26.3971V27.0558C29.3711 27.8722 29.1113 28.5402 28.5918 29.0597C28.0785 29.5731 27.4229 29.8297 26.625 29.8297C25.821 29.8297 25.1561 29.5731 24.6304 29.0597C24.1047 28.5402 23.8418 27.8506 23.8418 26.9909V26.3415ZM25.1221 27.0558C25.1221 27.5382 25.2581 27.9372 25.5303 28.2526C25.8024 28.5618 26.1673 28.7165 26.625 28.7165C27.0641 28.7165 27.4167 28.5649 27.6826 28.2619C27.9548 27.9588 28.0908 27.5444 28.0908 27.0187V26.3415C28.0908 25.859 27.9578 25.4601 27.6919 25.1447C27.4259 24.8293 27.0641 24.6715 26.6064 24.6715C26.1488 24.6715 25.7869 24.8293 25.521 25.1447C25.255 25.4601 25.1221 25.8714 25.1221 26.3786V27.0558ZM30.4194 33.9396C30.4194 33.1294 30.6761 32.4645 31.1895 31.945C31.709 31.4193 32.3739 31.1564 33.1841 31.1564C33.9943 31.1564 34.6592 31.4162 35.1787 31.9357C35.6982 32.4552 35.958 33.1448 35.958 34.0045V34.6632C35.958 35.4735 35.6982 36.1414 35.1787 36.6671C34.6654 37.1867 34.0067 37.4464 33.2026 37.4464C32.3986 37.4464 31.7337 37.1898 31.208 36.6764C30.6823 36.1569 30.4194 35.4673 30.4194 34.6076V33.9396ZM31.6997 34.6632C31.6997 35.1518 31.8358 35.5539 32.1079 35.8693C32.38 36.1785 32.745 36.3332 33.2026 36.3332C33.6479 36.3332 34.0036 36.1816 34.2695 35.8786C34.5355 35.5693 34.6685 35.1518 34.6685 34.6261V33.9396C34.6685 33.451 34.5324 33.0521 34.2603 32.7428C33.9943 32.4336 33.6356 32.279 33.1841 32.279C32.745 32.279 32.3862 32.4336 32.1079 32.7428C31.8358 33.0459 31.6997 33.4572 31.6997 33.9767V34.6632ZM27.0146 36.2311L26.0405 35.6188L32.6367 25.0612L33.6108 25.6735L27.0146 36.2311Z" fill="#27744D"/>
<path d="M24.6118 24.3376L24.3451 24.074L24.3435 24.0756L24.6118 24.3376ZM28.6011 24.3468L28.3297 24.6056L28.3328 24.6088L28.6011 24.3468ZM24.6304 29.0597L24.3668 29.3265L24.3684 29.328L24.6304 29.0597ZM25.5303 28.2526L25.2463 28.4976L25.2488 28.5003L25.5303 28.2526ZM27.6826 28.2619L27.4036 28.0113L27.4008 28.0145L27.6826 28.2619ZM27.6919 25.1447L27.9786 24.903L27.6919 25.1447ZM31.1895 31.945L30.9227 31.6814L30.9227 31.6814L31.1895 31.945ZM35.1787 36.6671L34.912 36.4036L34.912 36.4036L35.1787 36.6671ZM31.208 36.6764L30.9444 36.9432L30.946 36.9447L31.208 36.6764ZM32.1079 35.8693L31.824 36.1143L31.8264 36.117L32.1079 35.8693ZM34.2695 35.8786L34.5514 36.1259L34.5539 36.1231L34.2695 35.8786ZM34.2603 32.7428L33.9759 32.9874L33.9787 32.9906L34.2603 32.7428ZM32.1079 32.7428L31.8292 32.492L31.8289 32.4923L32.1079 32.7428ZM27.0146 36.2311L26.8151 36.5486L27.1334 36.7487L27.3327 36.4298L27.0146 36.2311ZM26.0405 35.6188L25.7225 35.4201L25.5243 35.7373L25.841 35.9363L26.0405 35.6188ZM32.6367 25.0612L32.8363 24.7437L32.5179 24.5436L32.3187 24.8625L32.6367 25.0612ZM33.6108 25.6735L33.9289 25.8722L34.127 25.555L33.8104 25.356L33.6108 25.6735ZM24.2168 26.3415C24.2168 25.6182 24.4425 25.0477 24.8801 24.5995L24.3435 24.0756C23.7544 24.6788 23.4668 25.4443 23.4668 26.3415H24.2168ZM24.8785 24.6011C25.3205 24.1539 25.8858 23.924 26.6064 23.924V23.174C25.7066 23.174 24.9422 23.4697 24.3451 24.074L24.8785 24.6011ZM26.6064 23.924C27.34 23.924 27.9021 24.1571 28.3297 24.6056L28.8725 24.0881C28.2858 23.4727 27.5181 23.174 26.6064 23.174V23.924ZM28.3328 24.6088C28.7677 25.0542 28.9961 25.6386 28.9961 26.3971H29.7461C29.7461 25.4734 29.4611 24.6909 28.8694 24.0848L28.3328 24.6088ZM28.9961 26.3971V27.0558H29.7461V26.3971H28.9961ZM28.9961 27.0558C28.9961 27.7849 28.7677 28.3535 28.3266 28.7946L28.857 29.3249C29.4549 28.7269 29.7461 27.9596 29.7461 27.0558H28.9961ZM28.3266 28.7946C27.8909 29.2303 27.3342 29.4547 26.625 29.4547V30.2047C27.5115 30.2047 28.266 29.9159 28.857 29.3249L28.3266 28.7946ZM26.625 29.4547C25.9088 29.4547 25.3411 29.2296 24.8924 28.7914L24.3684 29.328C24.9711 29.9165 25.7332 30.2047 26.625 30.2047V29.4547ZM24.894 28.793C24.4512 28.3555 24.2168 27.7681 24.2168 26.9909H23.4668C23.4668 27.9331 23.7581 28.7249 24.3668 29.3265L24.894 28.793ZM24.2168 26.9909V26.3415H23.4668V26.9909H24.2168ZM24.7471 27.0558C24.7471 27.6131 24.9063 28.1034 25.2463 28.4976L25.8142 28.0076C25.61 27.7709 25.4971 27.4634 25.4971 27.0558H24.7471ZM25.2488 28.5003C25.6005 28.9 26.0729 29.0915 26.625 29.0915V28.3415C26.2617 28.3415 26.0043 28.2237 25.8118 28.0049L25.2488 28.5003ZM26.625 29.0915C27.1612 29.0915 27.6205 28.9012 27.9645 28.5092L27.4008 28.0145C27.2129 28.2287 26.967 28.3415 26.625 28.3415V29.0915ZM27.9616 28.5124C28.3118 28.1224 28.4658 27.6093 28.4658 27.0187H27.7158C27.7158 27.4796 27.5977 27.7952 27.4036 28.0113L27.9616 28.5124ZM28.4658 27.0187V26.3415H27.7158V27.0187H28.4658ZM28.4658 26.3415C28.4658 25.7863 28.311 25.2972 27.9786 24.903L27.4052 25.3864C27.6047 25.6231 27.7158 25.9317 27.7158 26.3415H28.4658ZM27.9786 24.903C27.633 24.4931 27.161 24.2965 26.6064 24.2965V25.0465C26.9672 25.0465 27.2188 25.1654 27.4052 25.3864L27.9786 24.903ZM26.6064 24.2965C26.0518 24.2965 25.5798 24.4931 25.2343 24.903L25.8077 25.3864C25.9941 25.1654 26.2457 25.0465 26.6064 25.0465V24.2965ZM25.2343 24.903C24.8991 25.3005 24.7471 25.804 24.7471 26.3786H25.4971C25.4971 25.9389 25.611 25.6197 25.8077 25.3864L25.2343 24.903ZM24.7471 26.3786V27.0558H25.4971V26.3786H24.7471ZM30.7944 33.9396C30.7944 33.2163 31.0201 32.6499 31.4562 32.2085L30.9227 31.6814C30.3321 32.2791 30.0444 33.0425 30.0444 33.9396H30.7944ZM31.4562 32.2086C31.8981 31.7614 32.4635 31.5314 33.1841 31.5314V30.7814C32.2843 30.7814 31.5198 31.0772 30.9227 31.6814L31.4562 32.2086ZM33.1841 31.5314C33.9061 31.5314 34.4719 31.7592 34.9135 32.2009L35.4439 31.6705C34.8465 31.0731 34.0825 30.7814 33.1841 30.7814V31.5314ZM34.9135 32.2009C35.3508 32.6381 35.583 33.2261 35.583 34.0045H36.333C36.333 33.0636 36.0457 32.2723 35.4439 31.6705L34.9135 32.2009ZM35.583 34.0045V34.6632H36.333V34.0045H35.583ZM35.583 34.6632C35.583 35.3852 35.3551 35.9551 34.912 36.4036L35.4454 36.9307C36.0413 36.3277 36.333 35.5617 36.333 34.6632H35.583ZM34.912 36.4036C34.4765 36.8443 33.9176 37.0714 33.2026 37.0714V37.8214C34.0958 37.8214 34.8542 37.5291 35.4455 36.9307L34.912 36.4036ZM33.2026 37.0714C32.4864 37.0714 31.9187 36.8463 31.47 36.4081L30.946 36.9447C31.5487 37.5332 32.3108 37.8214 33.2026 37.8214V37.0714ZM31.4716 36.4097C31.0288 35.9722 30.7944 35.3848 30.7944 34.6076H30.0444C30.0444 35.5498 30.3357 36.3416 30.9444 36.9432L31.4716 36.4097ZM30.7944 34.6076V33.9396H30.0444V34.6076H30.7944ZM31.3247 34.6632C31.3247 35.2254 31.4832 35.7193 31.824 36.1143L32.3918 35.6243C32.1883 35.3885 32.0747 35.0783 32.0747 34.6632H31.3247ZM31.8264 36.117C32.1781 36.5167 32.6506 36.7082 33.2026 36.7082V35.9582C32.8393 35.9582 32.582 35.8404 32.3894 35.6216L31.8264 36.117ZM33.2026 36.7082C33.7433 36.7082 34.2063 36.5192 34.5514 36.1259L33.9877 35.6312C33.8009 35.8441 33.5526 35.9582 33.2026 35.9582V36.7082ZM34.5539 36.1231C34.8935 35.7281 35.0435 35.2151 35.0435 34.6261H34.2935C34.2935 35.0886 34.1774 35.4106 33.9852 35.6341L34.5539 36.1231ZM35.0435 34.6261V33.9396H34.2935V34.6261H35.0435ZM35.0435 33.9396C35.0435 33.3777 34.885 32.8851 34.5418 32.4951L33.9787 32.9906C34.1798 33.219 34.2935 33.5243 34.2935 33.9396H35.0435ZM34.5446 32.4983C34.1992 32.0968 33.7317 31.904 33.1841 31.904V32.654C33.5395 32.654 33.7894 32.7704 33.9759 32.9873L34.5446 32.4983ZM33.1841 31.904C32.6453 31.904 32.183 32.0989 31.8292 32.492L32.3866 32.9937C32.5895 32.7683 32.8446 32.654 33.1841 32.654V31.904ZM31.8289 32.4923C31.4794 32.8815 31.3247 33.391 31.3247 33.9767H32.0747C32.0747 33.5234 32.1922 33.2103 32.3869 32.9934L31.8289 32.4923ZM31.3247 33.9767V34.6632H32.0747V33.9767H31.3247ZM27.2142 35.9136L26.2401 35.3013L25.841 35.9363L26.8151 36.5486L27.2142 35.9136ZM26.3586 35.8175L32.9547 25.2599L32.3187 24.8625L25.7225 35.4201L26.3586 35.8175ZM32.4372 25.3787L33.4113 25.991L33.8104 25.356L32.8363 24.7437L32.4372 25.3787ZM33.2928 25.4748L26.6966 36.0324L27.3327 36.4298L33.9289 25.8722L33.2928 25.4748Z" fill="#27744D"/>
</g>
<defs>
<clipPath id="clip0">
<rect width="60" height="60" fill="white"/>
</clipPath>
</defs>
</svg>
