<svg width="12" height="12" viewBox="0 0 12 12" fill="none" xmlns="http://www.w3.org/2000/svg">
<rect width="12" height="12" rx="2" fill="#C4C4C4"/>
<path fill-rule="evenodd" clip-rule="evenodd" d="M5.1428 8.29287C5.34569 8.48019 5.66202 8.46757 5.84934 8.26468L9.3934 4.4261C9.58072 4.2232 9.5681 3.90687 9.36521 3.71955C9.16232 3.53223 8.84599 3.54485 8.65867 3.74774L6.11964 6.49777C5.76395 6.88301 5.15922 6.89507 4.78846 6.52431L4.48917 6.22503C4.29391 6.02976 3.97733 6.02976 3.78207 6.22503C3.5868 6.42029 3.5868 6.73687 3.78207 6.93213L4.78205 7.93212C4.78591 7.93598 4.78604 7.9422 4.78233 7.94621C4.77852 7.95034 4.77878 7.95678 4.78291 7.96059L5.1428 8.29287Z" fill="#FFFEFE"/>
</svg>
