<svg width="59" height="59" viewBox="0 0 59 59" fill="none" xmlns="http://www.w3.org/2000/svg">
<g clip-path="url(#clip0)">
<path d="M26.3366 34.1815L26.3398 34.183C27.3244 34.659 28.4045 34.9045 29.4979 34.9L29.5016 34.9C30.5923 34.9036 31.6701 34.6581 32.6519 34.1831L32.6557 34.1813L32.6557 34.1813C35.2261 32.9647 36.8653 30.3768 36.8671 27.5336L26.3366 34.1815ZM26.3366 34.1815C23.768 32.9622 22.1315 30.3726 22.1328 27.5293L26.3366 34.1815ZM26.3448 20.8813L26.3442 20.8816C23.7739 22.0977 22.1346 24.686 22.1328 27.5293L26.3448 20.8813ZM26.3448 20.8813C28.3438 19.9322 30.6638 19.9321 32.6634 20.8813M26.3448 20.8813L32.6634 20.8813M32.6634 20.8813C35.2319 22.1006 36.8684 24.6903 36.8671 27.5335L32.6634 20.8813ZM35.7481 28.9409L35.7481 28.9409C36.4047 26.0206 34.9502 23.0357 32.2459 21.7536C31.3892 21.3411 30.4503 21.129 29.4998 21.1333C28.5518 21.1295 27.6158 21.3417 26.762 21.7537C24.0579 23.0358 22.6029 26.0206 23.26 28.9409C23.9168 31.8612 26.5105 33.9367 29.5038 33.9367C32.4976 33.9367 35.0913 31.8612 35.7481 28.9409Z" fill="url(#paint0_linear)" stroke="#27744D"/>
<path d="M13.7671 1.46667H13.7666C10.2322 1.46667 7.36657 4.33227 7.36657 7.86667C7.36657 11.4011 10.2322 14.2667 13.7666 14.2667C17.301 14.2667 20.1666 11.4011 20.1666 7.86667V7.86615C20.1629 4.33312 17.3001 1.47031 13.7671 1.46667ZM13.766 15.2333C9.6976 15.233 6.3999 11.9352 6.3999 7.86667C6.3999 3.79799 9.6979 0.5 13.7666 0.5C17.8351 0.5 21.1329 3.79769 21.1332 7.86611C21.1287 11.9328 17.8327 15.2288 13.766 15.2333Z" fill="url(#paint1_linear)" stroke="#27744D"/>
<path d="M45.2339 1.46667H45.2334C41.699 1.46667 38.8334 4.33227 38.8334 7.86667C38.8334 11.4011 41.699 14.2667 45.2334 14.2667C48.7678 14.2667 51.6334 11.4011 51.6334 7.86667V7.86615C51.6297 4.33312 48.7669 1.47031 45.2339 1.46667ZM45.2328 15.2333C41.1644 15.233 37.8667 11.9352 37.8667 7.86667C37.8667 3.79799 41.1647 0.5 45.2334 0.5C49.3019 0.5 52.5997 3.79769 52.6 7.86611C52.5955 11.9328 49.2995 15.2288 45.2328 15.2333Z" fill="url(#paint2_linear)" stroke="#27744D"/>
<path d="M22.6179 16.2333L22.6167 16.2333L18.6833 16.2333C18.6379 16.2333 18.5969 16.2322 18.5649 16.2313L18.5622 16.2313C18.5272 16.2303 18.5063 16.2298 18.4884 16.23C18.4857 16.23 18.4834 16.2301 18.4813 16.2301C18.4608 16.246 18.4084 16.2917 18.3123 16.4072L18.3122 16.4073L14.1508 21.4008L13.7667 21.8617L13.3826 21.4008L9.22116 16.4073L9.21524 16.4002L9.21531 16.4001C9.12848 16.2919 8.99691 16.2305 8.85983 16.2332L8.85 16.2334V16.2333H4.917C2.47864 16.2365 0.503184 18.212 0.5 20.6503V38.35C0.5 38.6169 0.716433 38.8333 0.983333 38.8333H13.3144C13.5813 38.8333 13.7977 38.6169 13.7977 38.35C13.7977 38.0831 13.5813 37.8667 13.3144 37.8667H7.86667H7.36667V37.3667V26.55C7.36667 26.2831 7.15023 26.0667 6.88333 26.0667C6.61643 26.0667 6.4 26.2831 6.4 26.55V37.3667V37.8667H5.9H1.96667H1.46667V37.3667V20.65C1.46667 18.7447 3.0114 17.2 4.91667 17.2H8.39002H8.62422L8.77415 17.3799L13.3952 22.9257C13.3953 22.9258 13.3953 22.9258 13.3954 22.9259C13.4873 23.0359 13.6232 23.0995 13.7667 23.0995C13.9102 23.0995 14.0462 23.0358 14.1381 22.9257L18.7592 17.3799L18.9091 17.2H19.1433H22.6161H22.6167L22.6179 16.2333ZM22.6179 16.2333C23.4992 16.2312 24.3604 16.4937 25.0896 16.9872C25.311 17.1372 25.3691 17.4384 25.2189 17.6603C25.0687 17.8816 24.7674 17.9396 24.5458 17.7897L22.6179 16.2333Z" fill="url(#paint3_linear)" stroke="#27744D"/>
<path d="M42.6051 37.8583C41.7274 36.3382 40.1055 35.401 38.3501 35.4H34.4167C34.1051 35.4 34.0105 35.3371 33.6615 35.7529L29.5001 40.7464L25.3387 35.7529C25.1548 35.5248 24.8763 35.3947 24.5834 35.4H20.6501C17.9368 35.4048 15.7382 37.6034 15.7334 40.3167V58.0167C15.7334 58.5597 16.1737 59 16.7167 59H42.2834C42.8264 59 43.2667 58.5597 43.2667 58.0167V40.3167C43.2648 39.4534 43.0367 38.6059 42.6051 37.8583ZM41.3001 57.0333H37.3667V45.2333C37.3667 44.6903 36.9264 44.25 36.3834 44.25C35.8404 44.25 35.4001 44.6903 35.4001 45.2333V57.0333H23.6001V46.2167C23.6001 45.6736 23.1598 45.2333 22.6167 45.2333C22.0737 45.2333 21.6334 45.6736 21.6334 46.2167V57.0333H17.7001V40.3167C17.7058 38.6899 19.0233 37.3724 20.6501 37.3667H24.122L28.7438 42.9128C28.9306 43.1375 29.2077 43.2676 29.5001 43.2676C29.7925 43.2676 30.0695 43.1375 30.2563 42.9128L34.8782 37.3667H38.3501C39.9768 37.3724 41.2943 38.6899 41.3001 40.3167V57.0333Z" fill="url(#paint4_linear)"/>
<path d="M54.0833 15.7333H50.1499C49.8393 15.7333 49.7428 15.6704 49.3947 16.0872L45.2333 21.0807L41.0719 16.0872C40.7247 15.6695 40.6273 15.7333 40.3166 15.7333H36.3833C35.0787 15.7295 33.8265 16.248 32.9061 17.1728C32.5224 17.5574 32.5224 18.1797 32.9066 18.5638C33.2911 18.9479 33.9139 18.9474 34.2975 18.5633C34.8497 18.0087 35.6006 17.6976 36.3833 17.7H39.8566L44.478 23.2461C44.6648 23.4699 44.9413 23.5995 45.2333 23.5995C45.5252 23.5995 45.8018 23.4699 45.9885 23.2461L50.6099 17.7H54.0833C55.7124 17.7 57.0333 19.0209 57.0333 20.65V37.3667H53.0999V25.5667C53.0999 25.0236 52.6596 24.5833 52.1166 24.5833C51.5736 24.5833 51.1333 25.0236 51.1333 25.5667V37.3667H45.6856C45.1425 37.3667 44.7022 37.807 44.7022 38.35C44.7022 38.893 45.1425 39.3333 45.6856 39.3333H58.0166C58.5596 39.3333 58.9999 38.893 58.9999 38.35V20.65C58.9966 17.9357 56.7975 15.7367 54.0833 15.7333Z" fill="url(#paint5_linear)"/>
</g>
<defs>
<linearGradient id="paint0_linear" x1="29.5" y1="61.3728" x2="29.5" y2="-2.19381" gradientUnits="userSpaceOnUse">
<stop stop-color="#006DF0"/>
<stop offset="1" stop-color="#00E7F0"/>
</linearGradient>
<linearGradient id="paint1_linear" x1="13.7666" y1="61.3728" x2="13.7666" y2="-2.19382" gradientUnits="userSpaceOnUse">
<stop stop-color="#27744D"/>
<stop offset="1" stop-color="#27744D"/>
</linearGradient>
<linearGradient id="paint2_linear" x1="45.2334" y1="61.3728" x2="45.2334" y2="-2.19382" gradientUnits="userSpaceOnUse">
<stop stop-color="#27744D"/>
<stop offset="1" stop-color="#27744D"/>
</linearGradient>
<linearGradient id="paint3_linear" x1="12.8994" y1="61.3728" x2="12.8994" y2="-2.19382" gradientUnits="userSpaceOnUse">
<stop stop-color="#27744D"/>
<stop offset="1" stop-color="#00E7F0"/>
</linearGradient>
<linearGradient id="paint4_linear" x1="29.5001" y1="61.3728" x2="29.5001" y2="-2.19382" gradientUnits="userSpaceOnUse">
<stop stop-color="#27744D"/>
<stop offset="1" stop-color="#27744D"/>
</linearGradient>
<linearGradient id="paint5_linear" x1="45.8095" y1="61.3728" x2="45.8095" y2="-2.19382" gradientUnits="userSpaceOnUse">
<stop stop-color="#27744D"/>
<stop offset="1" stop-color="#27744D"/>
</linearGradient>
<clipPath id="clip0">
<rect width="59" height="59" fill="white"/>
</clipPath>
</defs>
</svg>
