<svg width="62" height="61" viewBox="0 0 62 61" fill="none" xmlns="http://www.w3.org/2000/svg">
<path d="M62 19.8098C61.9965 17.066 59.6856 14.843 56.8333 14.8396H45.4667V7.88128C45.4621 4.04004 42.2264 0.927342 38.2333 0.922974H23.7667C19.7736 0.927342 16.5379 4.04004 16.5333 7.88128V14.8396H5.16667C2.3144 14.843 0.00353191 17.066 0 19.8098V35.7145H2.06667V55.5954C2.0702 58.3392 4.38107 60.5622 7.23333 60.5656H54.7667C57.6189 60.5622 59.9298 58.3392 59.9333 55.5954V35.7145H62V19.8098ZM18.6 7.88128C18.6035 5.13747 20.9144 2.91446 23.7667 2.91106H38.2333C41.0856 2.91446 43.3965 5.13747 43.4 7.88128V14.8396H41.3333V7.88128C41.3333 6.23441 39.9453 4.89915 38.2333 4.89915H23.7667C22.0547 4.89915 20.6667 6.23441 20.6667 7.88128V14.8396H18.6V7.88128ZM39.2667 14.8396H22.7333V7.88128C22.7333 7.33232 23.196 6.88724 23.7667 6.88724H38.2333C38.804 6.88724 39.2667 7.33232 39.2667 7.88128V14.8396ZM57.8667 55.5954C57.8667 57.2423 56.4786 58.5775 54.7667 58.5775H7.23333C5.52137 58.5775 4.13333 57.2423 4.13333 55.5954V35.7145H25.8333V40.6847C25.8333 42.3316 27.2214 43.6669 28.9333 43.6669H33.0667C34.7786 43.6669 36.1667 42.3316 36.1667 40.6847V35.7145H57.8667V55.5954ZM27.9 35.7145H34.1V40.6847C34.1 41.2337 33.6373 41.6788 33.0667 41.6788H28.9333C28.3627 41.6788 27.9 41.2337 27.9 40.6847V35.7145ZM59.9333 33.7264H2.06667V19.8098C2.06667 18.1629 3.4547 16.8277 5.16667 16.8277H56.8333C58.5453 16.8277 59.9333 18.1629 59.9333 19.8098V33.7264Z" fill="url(#paint0_linear)"/>
<defs>
<linearGradient id="paint0_linear" x1="31" y1="62.7843" x2="31" y2="-0.954777" gradientUnits="userSpaceOnUse">
<stop stop-color="#27744D"/>
<stop offset="1" stop-color="#27744D"/>
</linearGradient>
</defs>
</svg>
