<svg width="60" height="60" viewBox="0 0 60 60" fill="none" xmlns="http://www.w3.org/2000/svg">
<path d="M40.4141 0H7V60H53V12.5859L40.4141 0ZM41 3.41406L49.5859 12H41V3.41406ZM9 58V2H39V14H51V58H9Z" fill="url(#paint0_linear)"/>
<path d="M35 16H13V6H35V16ZM15 14H33V8H15V14Z" fill="url(#paint1_linear)"/>
<path d="M47 44H13V34H47V44ZM15 42H45V36H15V42Z" fill="url(#paint2_linear)"/>
<path d="M13 20H47V22H13V20Z" fill="url(#paint3_linear)"/>
<path d="M13 24H47V26H13V24Z" fill="url(#paint4_linear)"/>
<path d="M13 28H47V30H13V28Z" fill="url(#paint5_linear)"/>
<path d="M13 48H47V50H13V48Z" fill="url(#paint6_linear)"/>
<path d="M13 52H47V54H13V52Z" fill="url(#paint7_linear)"/>
<defs>
<linearGradient id="paint0_linear" x1="30" y1="63.726" x2="30" y2="-0.862999" gradientUnits="userSpaceOnUse">
<stop stop-color="#27744D"/>
<stop offset="1" stop-color="#27744D"/>
</linearGradient>
<linearGradient id="paint1_linear" x1="24" y1="63.726" x2="24" y2="-0.862998" gradientUnits="userSpaceOnUse">
<stop stop-color="#27744D"/>
<stop offset="1" stop-color="#27744D"/>
</linearGradient>
<linearGradient id="paint2_linear" x1="30" y1="63.726" x2="30" y2="-0.863015" gradientUnits="userSpaceOnUse">
<stop stop-color="#27744D"/>
<stop offset="1" stop-color="#27744D"/>
</linearGradient>
<linearGradient id="paint3_linear" x1="30" y1="63.726" x2="30" y2="-0.862999" gradientUnits="userSpaceOnUse">
<stop stop-color="#27744D"/>
<stop offset="1" stop-color="#27744D"/>
</linearGradient>
<linearGradient id="paint4_linear" x1="30" y1="63.726" x2="30" y2="-0.863023" gradientUnits="userSpaceOnUse">
<stop stop-color="#27744D"/>
<stop offset="1" stop-color="#27744D"/>
</linearGradient>
<linearGradient id="paint5_linear" x1="30" y1="63.726" x2="30" y2="-0.863028" gradientUnits="userSpaceOnUse">
<stop stop-color="#27744D"/>
<stop offset="1" stop-color="#27744D"/>
</linearGradient>
<linearGradient id="paint6_linear" x1="30" y1="63.726" x2="30" y2="-0.862908" gradientUnits="userSpaceOnUse">
<stop stop-color="#27744D"/>
<stop offset="1" stop-color="#27744D"/>
</linearGradient>
<linearGradient id="paint7_linear" x1="30" y1="63.726" x2="30" y2="-0.8629" gradientUnits="userSpaceOnUse">
<stop stop-color="#27744D"/>
<stop offset="1" stop-color="#27744D"/>
</linearGradient>
</defs>
</svg>
