<svg width="112" height="40" viewBox="0 0 112 40" fill="none" xmlns="http://www.w3.org/2000/svg">
<path d="M21.2442 11.88H26.6922C27.5242 11.88 28.2522 12 28.8762 12.24C29.5002 12.48 30.0202 12.808 30.4362 13.224C30.8682 13.64 31.1882 14.128 31.3962 14.688C31.6202 15.248 31.7322 15.856 31.7322 16.512C31.7322 17.12 31.6362 17.656 31.4442 18.12C31.2682 18.584 31.0362 18.992 30.7482 19.344C30.4602 19.696 30.1402 19.992 29.7882 20.232C29.4362 20.456 29.0922 20.64 28.7562 20.784L32.5722 27H29.2362L26.0922 21.312H24.1002V27H21.2442V11.88ZM24.1002 19.032H25.5642C26.4762 19.032 27.2282 18.848 27.8202 18.48C28.4122 18.096 28.7082 17.464 28.7082 16.584C28.7082 15.784 28.4682 15.176 27.9882 14.76C27.5242 14.344 26.8362 14.136 25.9242 14.136H24.1002V19.032ZM44.4179 21.936H36.6659V22.032C36.6659 23.072 36.9859 23.848 37.6259 24.36C38.2819 24.872 39.1379 25.128 40.1939 25.128C40.8179 25.128 41.3699 25.072 41.8499 24.96C42.3459 24.848 42.8179 24.696 43.2659 24.504L43.8179 26.496C43.3539 26.704 42.8019 26.88 42.1619 27.024C41.5219 27.168 40.7779 27.24 39.9299 27.24C39.0819 27.24 38.2819 27.128 37.5299 26.904C36.7939 26.68 36.1459 26.328 35.5859 25.848C35.0259 25.368 34.5779 24.76 34.2419 24.024C33.9219 23.288 33.7619 22.408 33.7619 21.384C33.7619 20.488 33.8979 19.672 34.1699 18.936C34.4419 18.2 34.8259 17.568 35.3219 17.04C35.8179 16.512 36.4179 16.104 37.1219 15.816C37.8259 15.528 38.6019 15.384 39.4499 15.384C40.9699 15.384 42.1779 15.848 43.0739 16.776C43.9699 17.704 44.4179 18.992 44.4179 20.64V21.936ZM41.5139 19.968C41.5139 19.632 41.4739 19.312 41.3939 19.008C41.3139 18.688 41.1859 18.408 41.0099 18.168C40.8339 17.928 40.6019 17.744 40.3139 17.616C40.0419 17.472 39.7139 17.4 39.3299 17.4C38.6099 17.4 38.0179 17.64 37.5539 18.12C37.0899 18.6 36.8099 19.232 36.7139 20.016L41.5139 19.968ZM49.594 27H46.762V15.6H48.946L49.306 17.112C49.834 16.584 50.402 16.168 51.01 15.864C51.618 15.544 52.322 15.384 53.122 15.384C53.922 15.384 54.594 15.544 55.138 15.864C55.682 16.168 56.09 16.608 56.362 17.184C56.906 16.624 57.506 16.184 58.162 15.864C58.818 15.544 59.538 15.384 60.322 15.384C61.522 15.384 62.434 15.712 63.058 16.368C63.682 17.024 63.994 17.96 63.994 19.176V27H61.162V19.56C61.162 18.952 61.018 18.472 60.73 18.12C60.442 17.768 60.002 17.592 59.41 17.592C58.946 17.592 58.482 17.704 58.018 17.928C57.554 18.152 57.138 18.472 56.77 18.888C56.786 19 56.794 19.104 56.794 19.2C56.794 19.28 56.794 19.376 56.794 19.488V27H53.962V19.56C53.962 18.952 53.818 18.472 53.53 18.12C53.242 17.768 52.802 17.592 52.21 17.592C51.746 17.592 51.282 17.72 50.818 17.976C50.37 18.216 49.962 18.552 49.594 18.984V27ZM67.252 11.88H72.7C73.532 11.88 74.26 12 74.884 12.24C75.508 12.48 76.028 12.808 76.444 13.224C76.876 13.64 77.196 14.128 77.404 14.688C77.628 15.248 77.74 15.856 77.74 16.512C77.74 17.12 77.644 17.656 77.452 18.12C77.276 18.584 77.044 18.992 76.756 19.344C76.468 19.696 76.148 19.992 75.796 20.232C75.444 20.456 75.1 20.64 74.764 20.784L78.58 27H75.244L72.1 21.312H70.108V27H67.252V11.88ZM70.108 19.032H71.572C72.484 19.032 73.236 18.848 73.828 18.48C74.42 18.096 74.716 17.464 74.716 16.584C74.716 15.784 74.476 15.176 73.996 14.76C73.532 14.344 72.844 14.136 71.932 14.136H70.108V19.032ZM90.4257 21.936H82.6737V22.032C82.6737 23.072 82.9937 23.848 83.6337 24.36C84.2897 24.872 85.1457 25.128 86.2017 25.128C86.8257 25.128 87.3777 25.072 87.8577 24.96C88.3537 24.848 88.8257 24.696 89.2737 24.504L89.8257 26.496C89.3617 26.704 88.8097 26.88 88.1697 27.024C87.5297 27.168 86.7857 27.24 85.9377 27.24C85.0897 27.24 84.2897 27.128 83.5377 26.904C82.8017 26.68 82.1537 26.328 81.5937 25.848C81.0337 25.368 80.5857 24.76 80.2497 24.024C79.9297 23.288 79.7697 22.408 79.7697 21.384C79.7697 20.488 79.9057 19.672 80.1777 18.936C80.4497 18.2 80.8337 17.568 81.3297 17.04C81.8257 16.512 82.4257 16.104 83.1297 15.816C83.8337 15.528 84.6097 15.384 85.4577 15.384C86.9777 15.384 88.1857 15.848 89.0817 16.776C89.9777 17.704 90.4257 18.992 90.4257 20.64V21.936ZM87.5217 19.968C87.5217 19.632 87.4817 19.312 87.4017 19.008C87.3217 18.688 87.1937 18.408 87.0177 18.168C86.8417 17.928 86.6097 17.744 86.3217 17.616C86.0497 17.472 85.7217 17.4 85.3377 17.4C84.6177 17.4 84.0257 17.64 83.5617 18.12C83.0977 18.6 82.8177 19.232 82.7217 20.016L87.5217 19.968ZM95.6018 27H92.7698V15.6H94.9538L95.3138 17.112C95.8418 16.584 96.4098 16.168 97.0178 15.864C97.6258 15.544 98.3298 15.384 99.1298 15.384C99.9298 15.384 100.602 15.544 101.146 15.864C101.69 16.168 102.098 16.608 102.37 17.184C102.914 16.624 103.514 16.184 104.17 15.864C104.826 15.544 105.546 15.384 106.33 15.384C107.53 15.384 108.442 15.712 109.066 16.368C109.69 17.024 110.002 17.96 110.002 19.176V27H107.17V19.56C107.17 18.952 107.026 18.472 106.738 18.12C106.45 17.768 106.01 17.592 105.418 17.592C104.954 17.592 104.49 17.704 104.026 17.928C103.562 18.152 103.146 18.472 102.778 18.888C102.794 19 102.802 19.104 102.802 19.2C102.802 19.28 102.802 19.376 102.802 19.488V27H99.9698V19.56C99.9698 18.952 99.8258 18.472 99.5378 18.12C99.2498 17.768 98.8098 17.592 98.2178 17.592C97.7538 17.592 97.2898 17.72 96.8258 17.976C96.3778 18.216 95.9698 18.552 95.6018 18.984V27Z" fill="black"/>
<path d="M0 9C0 8.44771 0.447715 8 1 8H14C14.5523 8 15 8.44772 15 9V26C15 26.5523 14.5523 27 14 27H1C0.447715 27 0 26.5523 0 26V9Z" fill="#151515"/>
</svg>
