<svg width="20" height="20" viewBox="0 0 20 20" fill="none" xmlns="http://www.w3.org/2000/svg">
<g clip-path="url(#clip0)">
<path d="M17.8023 11.9804L17.7915 11.9703C17.6207 11.8124 17.0977 11.3023 16.9213 11.0794C16.7142 10.8013 16.762 10.6191 16.9171 10.346C17.1132 10.001 17.5061 9.47166 17.9219 8.91118C19.2537 7.1166 20.1136 5.87424 19.9366 4.99178L19.8412 4.52043L14.9228 4.52257C14.9056 4.56905 14.6489 5.69873 13.5659 7.62234C12.7805 9.01713 12.2653 9.4553 12.0839 9.53266L12.0558 9.5241C11.9968 9.45102 11.8936 9.2538 11.8512 8.74545C11.807 8.21294 11.8462 7.56822 11.8842 6.94475C11.9286 6.21365 11.9669 5.58223 11.8752 5.13045L11.7258 4.39445C11.5453 4.36556 10.8844 4.11008 9.04314 4.09067C7.44905 4.07431 6.98076 4.30501 6.75081 4.50835L5.99015 5.1809L6.95161 5.50502C7.31752 5.6284 7.43898 5.77074 7.53862 6.47631C7.60362 6.93619 7.63765 7.70903 7.56746 8.39901C7.4666 9.38834 7.22474 9.57241 7.21223 9.5822C7.17058 9.56798 6.81733 9.4131 6.20408 8.11403C5.77867 7.21307 5.40574 6.1473 5.13322 5.3691C4.82133 4.47793 4.87748 4.66766 4.71925 4.24661L-0.0390635 4.24646L0.268859 5.04453C1.55258 8.37485 2.73041 10.9756 4.30665 12.8436C6.04814 14.9074 8.21245 15.988 11.1278 15.988H11.7137V15.4009C11.7137 14.852 11.7591 14.4568 11.8563 14.1572C11.9156 13.9746 11.9945 13.8237 12.0774 13.6655C12.2003 13.4325 12.3206 13.3327 12.3862 13.3178C12.4457 13.3042 12.5504 13.3479 12.6663 13.4346C12.9993 13.6834 13.2636 14.0102 13.5434 14.3564C13.9472 14.8559 14.3647 15.3722 15.027 15.7102C15.389 15.8949 16.0524 15.9881 16.4176 15.9881C16.5142 15.9881 19.9567 15.988 19.961 15.988L19.9358 15.3767C19.8983 14.4628 19.1803 13.32 17.8023 11.9804ZM16.4403 14.8138H16.4308C16.1791 14.8179 15.6986 14.7352 15.5588 14.664C15.1184 14.4392 14.8107 14.0584 14.4541 13.6175C14.1411 13.2302 13.8175 12.8298 13.3669 12.4933C13.0025 12.221 12.6715 12.1414 12.4088 12.1414C12.3038 12.1414 12.2095 12.1541 12.1286 12.1724C11.8236 12.2412 11.3874 12.461 11.0405 13.1183C10.9427 13.3053 10.8318 13.517 10.7419 13.7941C10.6478 14.0839 10.5892 14.4061 10.5612 14.7979C8.36427 14.6729 6.64994 13.802 5.20158 12.0856C3.85499 10.4896 2.79557 8.25728 1.67359 5.42017C1.75476 5.42017 3.78892 5.42047 3.909 5.42047C3.94578 5.52398 3.98545 5.63742 4.02756 5.75759C4.3213 6.59709 4.72367 7.74664 5.19776 8.72695C5.87663 10.1308 6.49659 10.7568 7.20781 10.7568C7.56288 10.7568 7.88133 10.6061 8.12868 10.3206C8.48131 9.91381 8.68608 9.24233 8.75475 8.26768C8.80892 7.49912 8.75856 6.73361 8.69905 6.3118C8.64992 5.96475 8.57988 5.60042 8.40898 5.27401C9.13728 5.24114 10.1125 5.29312 10.7303 5.38195C10.7865 5.68833 10.7498 6.29055 10.7144 6.8732C10.6288 8.28067 10.5405 9.73309 11.284 10.4127C11.4148 10.5322 11.5535 10.5963 11.5575 10.5989L11.9359 10.7152C12.0819 10.6701 12.9277 11.1001 14.5293 8.29963C15.0424 7.40234 15.5202 6.36837 15.7775 5.69307C16.3741 5.69185 18.4067 5.69414 18.6455 5.69445C18.3072 6.44038 17.5055 7.50432 16.9815 8.2105C16.5247 8.82602 16.1302 9.35761 15.8988 9.76489C15.4688 10.5215 15.5411 11.1959 15.989 11.7908L15.996 11.8C16.2459 12.1187 16.8631 12.7089 16.9912 12.8278C17.9186 13.73 18.3655 14.3781 18.5782 14.8137H16.4403V14.8138Z" fill="#C4C4C4"/>
</g>
<defs>
<clipPath id="clip0">
<rect width="20" height="20" fill="white"/>
</clipPath>
</defs>
</svg>
